<svg width="100%" height="100%" viewBox="0 0 3334 3334" version="1.1" xmlns="http://www.w3.org/2000/svg" xmlns:xlink="http://www.w3.org/1999/xlink" xml:space="preserve" xmlns:serif="http://www.serif.com/" style="fill-rule:evenodd;clip-rule:evenodd;stroke-linejoin:round;stroke-miterlimit:2;">
    <g transform="matrix(4.16667,0,0,4.16667,0,0)">
        <g transform="matrix(-1,0,0,1,799.997,0)">
            <path d="M689.225,0C673.463,0 660.659,12.791 660.659,28.566C660.688,64.884 658.734,93.381 654.884,114.708C652.037,130.706 648.147,142.577 643.852,150.93C640.63,157.236 637.269,161.586 633.642,165.017C628.202,170.094 621.8,173.637 611.645,176.356C601.589,179.034 588.003,180.416 571.056,180.388L483.966,180.388C474.884,180.347 470.631,178.602 468.288,177.18C466.502,176.05 465.302,174.908 463.809,172.578C461.62,169.202 459.333,162.759 458.078,153.888C456.767,145.072 456.375,134.164 456.391,122.559C456.391,114.303 456.572,105.683 456.572,96.994C456.572,81.219 443.767,68.428 428.006,68.428C412.217,68.428 399.441,81.219 399.441,96.994C399.441,104.903 399.259,113.55 399.259,122.559C399.273,133.844 399.525,145.686 400.947,157.681C401.853,165.186 403.43,172.788 405.659,180.388L340.913,180.388C331.819,180.347 327.566,178.602 325.222,177.18C323.452,176.05 322.252,174.908 320.744,172.578C318.555,169.202 316.281,162.759 315.013,153.888C313.702,145.072 313.323,134.164 313.323,122.559C313.323,114.303 313.505,105.683 313.505,96.994C313.505,81.219 300.714,68.428 284.939,68.428C269.164,68.428 256.373,81.219 256.373,96.994C256.373,104.903 256.192,113.55 256.192,122.559C256.206,133.844 256.458,145.686 257.894,157.681C258.786,165.186 260.363,172.788 262.608,180.388L247.614,180.388C220.792,180.402 201.336,176.456 187.623,170.541C177.303,166.092 170.036,160.708 164.08,154.152C155.236,144.375 148.961,131.053 144.886,112.88C140.842,94.803 139.322,72.403 139.336,47.227C139.336,31.452 126.558,18.661 110.77,18.661C95.008,18.661 82.205,31.452 82.205,47.227C82.231,71.509 83.375,94.859 87.448,117.036C90.517,133.648 95.233,149.661 102.748,164.598C113.852,186.998 132.055,206.68 156.714,219.12C181.373,231.686 211.361,237.505 247.613,237.517L480.28,237.517L480.28,340.203C479.748,378.352 391.82,379.258 301.214,390.248C144.109,409.289 90.8,462.822 117.58,538.767C144.108,614.017 214.909,630.978 276.378,630.978C337.847,630.978 365.603,632.053 373.694,661.692C389.064,718.041 409.567,800 409.567,800L696.394,800L593.959,467.048C593.959,467.048 670.784,461.93 686.156,426.069C701.528,390.223 660.659,368.827 615.441,378.353C563.972,389.191 537.417,371.213 537.417,335.505L537.417,237.519L571.058,237.519C594.491,237.478 615.72,235.566 635.611,228.761C650.423,223.669 664.398,215.413 675.723,203.767C684.233,195.063 691.15,184.7 696.591,173.123C704.778,155.716 709.869,135.644 713.147,111.975C716.397,88.306 717.792,60.897 717.792,28.567C717.791,12.791 705.013,0 689.225,0ZM402.398,480.717C389.902,480.717 379.773,470.591 379.773,458.094C379.773,445.611 389.9,435.484 402.398,435.484C414.869,435.484 424.995,445.611 424.995,458.094C424.994,470.591 414.869,480.717 402.398,480.717Z" style="fill-rule:nonzero;"/>
        </g>
    </g>
</svg>
